HIERARCHY
ROOT Hips
{
	OFFSET 0.00000 0.00000 0.00000
	CHANNELS 6 Xposition Yposition Zposition Zrotation Yrotation Xrotation 
	JOINT LHipJoint
	{
		OFFSET 0 0 0
		CHANNELS 3 Zrotation Yrotation Xrotation
		JOINT LeftUpLeg
		{
			OFFSET 1.57358 -1.76629 0.73362
			CHANNELS 3 Zrotation Yrotation Xrotation
			JOINT LeftLeg
			{
				OFFSET 2.40600 -6.61045 0.00000
				CHANNELS 3 Zrotation Yrotation Xrotation
				JOINT LeftFoot
				{
					OFFSET 2.66168 -7.31291 0.00000
					CHANNELS 3 Zrotation Yrotation Xrotation
					JOINT LeftToeBase
					{
						OFFSET 0.20870 -0.57341 2.12506
						CHANNELS 3 Zrotation Yrotation Xrotation
						End Site
						{
							OFFSET 0.00000 -0.00000 1.10557
						}
					}
				}
			}
		}
	}
	JOINT RHipJoint
	{
		OFFSET 0 0 0
		CHANNELS 3 Zrotation Yrotation Xrotation
		JOINT RightUpLeg
		{
			OFFSET -1.49299 -1.76629 0.73362
			CHANNELS 3 Zrotation Yrotation Xrotation
			JOINT RightLeg
			{
				OFFSET -2.43663 -6.69460 0.00000
				CHANNELS 3 Zrotation Yrotation Xrotation
				JOINT RightFoot
				{
					OFFSET -2.62959 -7.22474 0.00000
					CHANNELS 3 Zrotation Yrotation Xrotation
					JOINT RightToeBase
					{
						OFFSET -0.25784 -0.70841 2.21862
						CHANNELS 3 Zrotation Yrotation Xrotation
						End Site
						{
							OFFSET -0.00000 -0.00000 1.16452
						}
					}
				}
			}
		}
	}
	JOINT LowerBack
	{
		OFFSET 0 0 0
		CHANNELS 3 Zrotation Yrotation Xrotation
		JOINT Spine
		{
			OFFSET -0.00034 2.12399 -0.25450
			CHANNELS 3 Zrotation Yrotation Xrotation
			JOINT Spine1
			{
				OFFSET 0.05594 2.14379 -0.03318
				CHANNELS 3 Zrotation Yrotation Xrotation
				JOINT Neck
				{
					OFFSET 0 0 0
					CHANNELS 3 Zrotation Yrotation Xrotation
					JOINT Neck1
					{
						OFFSET -0.09835 1.62725 0.24211
						CHANNELS 3 Zrotation Yrotation Xrotation
						JOINT Head
						{
							OFFSET 0.10849 1.66041 -0.22648
							CHANNELS 3 Zrotation Yrotation Xrotation
							End Site
							{
								OFFSET 0.04385 1.68267 -0.10541
							}
						}
					}
				}
				JOINT LeftShoulder
				{
					OFFSET 0 0 0
					CHANNELS 3 Zrotation Yrotation Xrotation
					JOINT LeftArm
					{
						OFFSET 3.29108 0.79398 -0.68179
						CHANNELS 3 Zrotation Yrotation Xrotation
						JOINT LeftForeArm
						{
							OFFSET 5.15310 -0.00000 -0.00000
							CHANNELS 3 Zrotation Yrotation Xrotation
							JOINT LeftHand
							{
								OFFSET 3.75138 -0.00000 -0.00000
								CHANNELS 3 Zrotation Yrotation Xrotation
								JOINT LeftFingerBase
								{
									OFFSET 0 0 0
									CHANNELS 3 Zrotation Yrotation Xrotation
									JOINT LeftHandIndex1
									{
										OFFSET 0.52917 -0.00000 0.00000
										CHANNELS 3 Zrotation Yrotation Xrotation
										End Site
										{
											OFFSET 0.42663 -0.00000 0.00000
										}
									}
								}
								JOINT LThumb
								{
									OFFSET 0 0 0
									CHANNELS 3 Zrotation Yrotation Xrotation
									End Site
									{
										OFFSET 0.43315 -0.00000 0.43315
									}
								}
							}
						}
					}
				}
				JOINT RightShoulder
				{
					OFFSET 0 0 0
					CHANNELS 3 Zrotation Yrotation Xrotation
					JOINT RightArm
					{
						OFFSET -3.07414 1.06285 -0.44338
						CHANNELS 3 Zrotation Yrotation Xrotation
						JOINT RightForeArm
						{
							OFFSET -5.29613 -0.00000 0.00000
							CHANNELS 3 Zrotation Yrotation Xrotation
							JOINT RightHand
							{
								OFFSET -3.76144 -0.00000 -0.00000
								CHANNELS 3 Zrotation Yrotation Xrotation
								JOINT RightFingerBase
								{
									OFFSET 0 0 0
									CHANNELS 3 Zrotation Yrotation Xrotation
									JOINT RightHandIndex1
									{
										OFFSET -0.74732 -0.00000 0.00000
										CHANNELS 3 Zrotation Yrotation Xrotation
										End Site
										{
											OFFSET -0.60251 -0.00000 0.00000
										}
									}
								}
								JOINT RThumb
								{
									OFFSET 0 0 0
									CHANNELS 3 Zrotation Yrotation Xrotation
									End Site
									{
										OFFSET -0.61171 -0.00000 0.61171
									}
								}
							}
						}
					}
				}
			}
		}
	}
}
MOTION
Frames: 9
Frame Time: .0083333
8.9796 15.7984 2.4843 21.6014 -27.2883 -15.8146 0.0000 0.0000 0.0000 -14.0000 -5.0270 15.4614 2.4484 9.7435 28.1501 0.4944 -3.6695 15.1329 3.5035 -11.4687 -33.8773 0.0000 0.0000 0.0000 10.4960 2.2412 -42.8242 -13.7335 -19.0312 71.3891 -0.0514 7.7553 -6.4792 -0.7551 -5.5500 15.4841 -9.4746 -2.0109 10.6527 -1.4123 -4.0116 -0.8204 4.4466 -1.6739 -6.3281 -15.9786 -10.9021 -8.5553 6.3492 -14.0065 19.8677 3.0818 -7.2558 9.2613 -0.0000 -0.0000 0.0000 -88.3635 10.3919 40.7388 98.1102 -59.7500 -67.0177 -0.0000 0.0000 -13.3087 18.0126 4.4665 1.4505 -7.1250 0.0000 -0.0000 -7.1350 34.6062 1.8323 -0.0000 -0.0000 0.0000 79.2460 -18.0424 49.5648 -131.7852 52.2496 -95.2445 0.0000 -0.0000 -5.1955 -7.1378 20.6337 -2.5268 7.1250 -0.0000 -0.0000 13.6303 -9.6540 11.4903
8.7960 15.8299 2.6630 27.1577 -25.9580 -17.5817 0.0000 0.0000 0.0000 -20.4553 -6.8840 15.1965 2.3903 9.6357 27.8050 0.8530 -4.8409 19.8527 3.2062 -11.0216 -32.3528 0.0000 0.0000 0.0000 5.0503 0.4227 -43.5080 -13.7995 -19.0521 71.5913 -0.0358 8.6836 -6.7528 -0.8393 -5.8438 16.3320 -13.9975 -1.8516 10.1592 -2.6609 -4.4421 -1.2230 5.6425 -1.7478 -6.2356 -16.1689 -10.8875 -8.4254 6.3091 -13.9578 19.7048 3.1115 -7.2513 9.1883 -0.0000 0.0000 0.0000 -87.8246 10.8467 39.7110 98.0723 -59.7523 -66.9850 -0.0000 0.0000 -13.1138 18.4121 7.0265 2.3319 -7.1250 0.0000 -0.0000 -7.1157 37.2969 1.3572 -0.0000 0.0000 0.0000 79.1375 -17.7775 49.1050 -131.3565 52.4335 -94.9052 0.0000 -0.0000 -5.5073 -7.4793 20.5644 -2.6403 7.1250 -0.0000 -0.0000 13.4157 -9.6941 11.2873
8.5423 15.9539 3.0000 22.3397 -30.9240 -16.3668 0.0000 0.0000 0.0000 -16.0916 -6.5550 17.4022 2.4248 9.6999 28.0104 1.0874 -5.1832 22.2109 2.0087 -8.8842 -25.4338 0.0000 0.0000 0.0000 12.2197 3.1404 -39.4498 -13.3101 -18.8913 70.0858 -0.1568 7.6659 -8.2841 -0.8800 -5.9803 16.7274 -6.8984 -1.2715 8.9728 -1.4513 -2.5378 -0.6412 2.6943 -1.0756 -5.4885 -16.4591 -11.1016 -8.3223 6.6538 -14.2552 19.0350 3.2377 -7.3689 9.0235 0.0000 0.0000 0.0000 -87.1788 11.1122 38.2583 97.0265 -59.8126 -66.0813 -0.0000 0.0000 -12.0010 17.9225 7.7281 2.4903 -7.1250 0.0000 -0.0000 -7.6280 37.9953 1.3248 0.0000 0.0000 0.0000 79.0432 -17.2324 48.6299 -130.8075 52.6646 -94.4693 0.0000 -0.0000 -5.9272 -7.6489 20.1309 -2.6464 7.1250 -0.0000 -0.0000 13.3125 -10.1041 11.0820
8.3297 16.0236 3.2753 23.6257 -33.2771 -16.9842 0.0000 0.0000 0.0000 -18.3387 -7.3738 18.1543 2.4909 9.8213 28.3998 1.5391 -4.1749 25.2565 0.5647 -4.8129 -13.3756 0.0000 0.0000 0.0000 12.1239 4.2563 -37.9950 -13.1941 -18.8511 69.7273 -0.1906 8.2735 -9.0599 -0.7614 -5.5726 15.5491 -6.0205 -0.6365 7.7665 -1.6597 -1.5064 -0.5052 1.8284 -0.6196 -4.7843 -16.3515 -11.1946 -8.0963 6.5776 -14.3692 18.2698 3.2015 -7.4143 8.7195 -0.0000 -0.0000 0.0000 -86.5975 11.3310 36.6100 94.4379 -59.9254 -63.8424 -0.0000 0.0000 -11.2456 18.3331 3.9805 1.3177 -7.1250 0.0000 -0.0000 -6.8204 34.1119 1.8329 -0.0000 -0.0000 0.0000 78.7348 -16.5401 48.2000 -130.2623 52.8892 -94.0352 0.0000 -0.0000 -6.3502 -7.7491 19.6201 -2.6162 7.1250 -0.0000 -0.0000 13.2546 -10.5957 10.8947
8.1357 16.0864 3.5439 24.7748 -33.4971 -17.7673 0.0000 0.0000 0.0000 -20.8124 -9.1881 18.8242 2.6474 10.1010 29.3046 1.9054 -4.5460 28.0260 0.3925 -4.0229 -11.1412 0.0000 0.0000 0.0000 11.1802 3.3190 -36.4651 -13.1335 -18.8298 69.5395 -0.2052 9.6439 -9.8621 -0.7712 -5.6075 15.6496 -5.3314 -0.6654 7.1573 -1.9626 -1.4422 -0.2893 1.1095 -0.6263 -4.2421 -15.7941 -11.2894 -9.1991 5.5507 -14.2211 18.8593 2.7303 -7.3759 8.9796 0.0000 -0.0000 0.0000 -86.2175 11.6879 35.0621 92.9419 -59.9673 -62.5474 -0.0000 0.0000 -10.7004 18.6675 3.8266 1.2916 -7.1250 0.0000 -0.0000 -6.5319 33.9636 1.7781 0.0000 -0.0000 0.0000 78.2596 -15.7907 47.8097 -129.6962 53.1173 -93.5831 0.0000 -0.0000 -6.8554 -8.2106 19.6463 -2.7774 7.1250 -0.0000 -0.0000 12.9599 -10.5330 10.6559
7.9527 16.0865 3.7602 30.8359 -33.0016 -20.9724 0.0000 0.0000 0.0000 -27.5890 -9.9212 18.4849 2.8618 10.4679 30.5057 2.1184 -4.4431 29.3647 0.1871 -2.7862 -7.6840 0.0000 0.0000 0.0000 5.1530 2.8351 -36.1861 -13.4761 -18.9474 70.5980 -0.1432 12.3330 -10.4705 -0.9115 -6.0836 17.0272 -9.6661 -0.2156 6.7046 -3.1628 -1.2240 -0.2171 2.2372 -0.4641 -3.8787 -16.6024 -11.3594 -7.6049 6.9110 -14.5887 16.5419 3.3665 -7.4881 8.1206 0.0000 0.0000 0.0000 -85.8572 11.8458 33.5623 91.3404 -59.9932 -61.1608 -0.0000 0.0000 -10.2617 18.9779 4.2513 1.4603 -7.1250 0.0000 -0.0000 -6.3204 34.4212 1.6494 0.0000 0.0000 0.0000 77.6631 -14.8825 47.4034 -129.1984 53.3137 -93.1844 0.0000 -0.0000 -7.0800 -8.1915 19.4806 -2.7484 7.1250 -0.0000 -0.0000 12.9737 -10.6971 10.6233
7.7756 16.0483 3.9154 36.9091 -31.5004 -23.6121 0.0000 0.0000 0.0000 -33.9475 -11.0972 16.8878 3.1815 10.9832 32.2232 2.2146 -3.5341 29.5510 0.0918 -1.9539 -5.3782 0.0000 0.0000 0.0000 -1.2000 2.0648 -36.9162 -13.9133 -19.0875 71.9396 -0.0809 14.5495 -11.1174 -0.9527 -6.2157 17.4114 -14.9836 -0.0087 6.4689 -4.3667 -1.4282 -0.3077 3.8872 -0.4937 -3.7606 -16.4165 -11.4806 -7.5546 7.2973 -14.7907 15.5371 3.4563 -7.5266 7.8153 0.0000 0.0000 0.0000 -85.4356 12.0857 31.9660 90.2764 -59.9997 -60.2394 -0.0000 0.0000 -10.1295 19.5038 5.0265 1.7775 -7.1250 0.0000 -0.0000 -5.9665 35.2595 1.4340 0.0000 0.0000 0.0000 77.3082 -13.4511 47.0683 -128.3614 53.6354 -92.5117 0.0000 -0.0000 -7.1788 -8.1743 19.2463 -2.7109 7.1250 -0.0000 -0.0000 12.9874 -10.9282 10.5721
7.6024 15.9861 4.0271 42.2216 -28.7957 -24.8595 0.0000 0.0000 0.0000 -39.5403 -13.4861 14.2724 3.6064 11.6174 34.3915 2.1744 -2.8627 29.0045 0.1461 -2.4632 -6.7876 0.0000 0.0000 0.0000 -7.3923 0.4519 -38.5398 -14.3610 -19.2199 73.3039 -0.0368 16.1998 -11.7564 -0.9605 -6.2403 17.4833 -20.7005 -0.2854 6.2209 -5.2919 -2.3440 -0.8228 6.0019 -0.8185 -3.9076 -15.9851 -11.7345 -8.9170 6.9488 -14.9375 15.9926 3.1759 -7.5624 8.1593 -0.0000 -0.0000 0.0000 -85.2893 13.1231 30.4751 89.9486 -60.0000 -59.9555 -0.0000 0.0000 -10.2997 20.2791 5.2193 1.9251 -7.1250 0.0000 -0.0000 -5.3435 35.5002 1.2517 -0.0000 -0.0000 0.0000 76.7790 -12.0612 46.8070 -127.4841 53.9611 -91.8038 0.0000 -0.0000 -7.2096 -8.5091 19.2787 -2.8279 7.1250 -0.0000 -0.0000 12.7724 -10.8696 10.4034
7.4257 15.9084 4.1188 46.9056 -26.6778 -26.0709 0.0000 0.0000 0.0000 -44.2000 -15.3687 11.5109 4.1957 12.4164 37.2213 1.9056 -2.5738 27.1111 0.3216 -3.6451 -10.0802 0.0000 0.0000 0.0000 -12.5856 -0.5109 -39.5237 -14.5651 -19.2765 73.9230 0.0294 17.2647 -11.8506 -1.0578 -6.5395 18.3581 -25.9882 -0.2949 6.5389 -5.9928 -3.0587 -1.3066 8.0067 -0.9958 -4.3403 -15.4142 -11.7986 -10.0608 6.5018 -14.8820 16.5749 2.8834 -7.5129 8.4660 -0.0000 -0.0000 0.0000 -84.9634 14.2706 29.2643 89.8184 -59.9999 -59.8427 -0.0000 0.0000 -10.2513 20.5945 5.5837 2.0939 -7.1250 0.0000 -0.0000 -5.1173 35.9027 1.1480 -0.0000 -0.0000 0.0000 76.2340 -10.7330 46.4747 -126.7310 54.2318 -91.1938 0.0000 -0.0000 -7.3000 -8.5873 19.3637 -2.8663 7.1250 -0.0000 -0.0000 12.7216 -10.7798 10.3837
